<svg xmlns="http://www.w3.org/2000/svg" viewBox="0 0 40 40" fill="none">
  <defs>
    <linearGradient id="w1" x1="0" y1="0" x2="40" y2="40" gradientUnits="userSpaceOnUse">
      <stop offset="0%" stop-color="#f59e0b"/>
      <stop offset="100%" stop-color="#ea580c"/>
    </linearGradient>
    <linearGradient id="w2" x1="0" y1="0" x2="40" y2="40" gradientUnits="userSpaceOnUse">
      <stop offset="0%" stop-color="#fbbf24"/>
      <stop offset="100%" stop-color="#f59e0b"/>
    </linearGradient>
  </defs>
  <!-- Outer ring -->
  <circle cx="20" cy="20" r="18" stroke="url(#w1)" stroke-width="2.5" fill="none"/>
  <!-- Weave pattern: three interlocking arcs -->
  <path d="M8 14 C8 14, 14 8, 20 8 C26 8, 32 14, 32 14" stroke="url(#w1)" stroke-width="2.5" stroke-linecap="round" fill="none"/>
  <path d="M6 20 C6 20, 12 14, 18 14 C24 14, 30 20, 34 20" stroke="url(#w2)" stroke-width="2.5" stroke-linecap="round" fill="none"/>
  <path d="M8 26 C8 26, 14 20, 20 20 C26 20, 32 26, 32 26" stroke="url(#w1)" stroke-width="2.5" stroke-linecap="round" fill="none"/>
  <path d="M6 26 C6 26, 12 20, 18 20 C24 20, 30 26, 34 26" stroke="url(#w2)" stroke-width="2.5" stroke-linecap="round" fill="none"/>
  <path d="M8 32 C8 32, 14 26, 20 26 C26 26, 32 32, 32 32" stroke="url(#w1)" stroke-width="2.5" stroke-linecap="round" fill="none"/>
</svg>
